<svg width="131" height="157" viewBox="0 0 131 157" fill="none" xmlns="http://www.w3.org/2000/svg">
<path d="M98.25 0C98.25 0 78.3249 32.7083 65.5 52.3333C52.1249 32.7083 39.3 19.625 39.3 19.625C39.3 19.625 0 65.4167 0 104.667C0 137.375 23.4621 157 52.4 157H78.6C107.538 157 131 137.375 131 104.667C131 52.3333 98.25 0 98.25 0ZM52.4 130.833C52.4 124.422 58.7142 115.774 65.5 108.971C72.2858 115.774 78.6 124.422 78.6 130.833C78.6 138.049 72.7247 143.917 65.5 143.917C58.2754 143.917 52.4 138.049 52.4 130.833ZM88.6804 142.778C90.5472 139.187 91.7 135.164 91.7 130.833C91.7 111.208 65.5 91.5833 65.5 91.5833C65.5 91.5833 39.3 111.208 39.3 130.833C39.3 135.164 40.4528 139.187 42.3196 142.778C26.593 139.233 13.1 127.078 13.1 104.667C13.1 83.1904 28.3288 56.7293 39.9943 40.192L65.7227 75.9226L97.4378 26.3171C106.379 45.1375 117.9 75.131 117.9 104.667C117.9 127.078 104.407 139.233 88.6804 142.778Z" fill="#A4FFF4"/>
</svg>
